<svg xmlns="http://www.w3.org/2000/svg" width="44" height="44" fill="none"><path fill="#fff" d="M16.265 3.878c2.147-5.17 9.323-5.17 11.47 0L29.23 7.48c.88 2.117 2.81 3.585 5.048 3.839l4.172.473c5.27.597 7.446 7.215 3.598 10.938l-3.543 3.428a6.445 6.445 0 0 0-1.822 5.875l.856 4.33c1.082 5.481-4.79 9.62-9.424 6.641l-2.798-1.798a6.12 6.12 0 0 0-6.634 0l-2.799 1.798c-4.634 2.978-10.505-1.16-9.423-6.64l.856-4.33a6.445 6.445 0 0 0-1.822-5.876L1.952 22.73C-1.896 19.008.28 12.39 5.55 11.792l4.172-.473c2.239-.254 4.169-1.722 5.048-3.84l1.495-3.601Z"/></svg>